<svg xmlns="http://www.w3.org/2000/svg" width="512" height="176.297" viewBox="0 0 512 176.297">
  <g id="Group_2" data-name="Group 2" transform="translate(-138.192 -736.1)">
    <g id="Group_1" data-name="Group 1" transform="translate(138.192 736.1)">
      <path id="Path_2" data-name="Path 2" d="M-98.014-17.124a5,5,0,0,0-5.339-4.969c-3.224,0-5.392,2.167-5.392,4.969,0,2.7,2.167,4.863,5.392,4.863C-100.182-12.26-98.014-14.428-98.014-17.124Zm10.308,4.44h9.938l4.81-19.135,4.652,19.135h9.991l7.982-29.5h-8.511l-4.123,20.986L-67.99-42.179h-9.568l-4.969,21.091L-86.7-42.179h-9.039Zm69.67-14.748c0-9.356-6.66-15.171-15.329-15.171-8.616,0-15.33,5.815-15.33,15.171S-42.141-12.26-33.472-12.26-18.037-18.075-18.037-27.431Zm-21.461,0c0-5.022,2.854-7.348,6.132-7.348,3.172,0,6.132,2.326,6.132,7.348,0,4.969-3.013,7.348-6.238,7.348C-36.749-20.084-39.5-22.463-39.5-27.431Zm35.311,1.057c0-5.075,2.484-6.555,6.766-6.555H5.063V-42.5a11,11,0,0,0-9.251,5.233v-4.916h-9.039v29.5h9.039ZM9.4-12.683h9.039V-51.8H9.4Zm13.8-14.8c0,9.3,5.762,15.224,13,15.224,4.335,0,7.453-1.956,9.092-4.652v4.229h9.039V-51.8H45.29v13.691A10.827,10.827,0,0,0,36.2-42.6C28.956-42.6,23.194-36.788,23.194-27.484Zm22.1.053c0,4.7-3.013,7.295-6.449,7.295-3.383,0-6.449-2.643-6.449-7.348s3.066-7.242,6.449-7.242C42.277-34.726,45.29-32.136,45.29-27.431Z" transform="translate(457.671 188.557)" fill="#fff"/>
      <path id="Path_1" data-name="Path 1" d="M6.192-66.7H33.6a12.218,12.218,0,0,0,3.767,7.014,20.718,20.718,0,0,0,8.378,4.611,42.248,42.248,0,0,0,12.4,1.624q9.871,0,15.586-2.533t5.715-7.468A6.567,6.567,0,0,0,76.2-69.294q-3.247-2.078-12.469-2.987L45.547-73.97q-20.132-1.818-29.224-9.157T7.231-102.934a25.71,25.71,0,0,1,5.91-17.145q5.91-7.014,16.625-10.586a79.152,79.152,0,0,1,25-3.572,72.811,72.811,0,0,1,24.938,3.962q10.91,3.961,17.34,11.235A27.026,27.026,0,0,1,104-102.155H76.72a9.943,9.943,0,0,0-3.312-6.04,18.759,18.759,0,0,0-7.6-3.9,42.755,42.755,0,0,0-11.56-1.364q-9.092,0-14.417,2.4t-5.325,7.079a6.278,6.278,0,0,0,3.182,5.455q3.182,2.078,11.495,2.857l19.353,1.948q13.9,1.3,22.21,4.481t12.079,8.767q3.767,5.585,3.767,13.9a27.658,27.658,0,0,1-6.1,17.859q-6.1,7.6-17.145,11.82T57.627-32.666q-15.067,0-26.562-4.221T13.076-48.837A28.741,28.741,0,0,1,6.192-66.7Zm111.572-43.382,13.378,2.6,13.248-2.6v75.334H117.764Zm13.248-6.1q-6.884,0-11.17-3.442a11.424,11.424,0,0,1-4.286-9.417,11.47,11.47,0,0,1,4.286-9.352q4.286-3.507,11.17-3.507,7.144,0,11.365,3.507a11.542,11.542,0,0,1,4.221,9.352,11.5,11.5,0,0,1-4.221,9.417Q138.156-116.183,131.012-116.183ZM223.75-53.448v-12.6l.909-3.117V-87.348l-.909-2.728v-18.833h26.5v54.422q0,13.638-6.364,23.379A40.1,40.1,0,0,1,226.153-16.3q-11.365,5.066-26.821,5.066A65.2,65.2,0,0,1,180.3-13.9a78.764,78.764,0,0,1-17.47-7.858v-20a54.666,54.666,0,0,0,16.95,8.637,62,62,0,0,0,17.859,2.663q12.729,0,19.418-5.455T223.75-53.448Zm-31.822,10.91a39.711,39.711,0,0,1-18.7-4.286A32.611,32.611,0,0,1,160.3-58.838a33.706,33.706,0,0,1-4.741-17.989A33.619,33.619,0,0,1,160.3-94.881a32.763,32.763,0,0,1,12.924-11.949,39.711,39.711,0,0,1,18.7-4.286,40.886,40.886,0,0,1,14.287,2.4,42.622,42.622,0,0,1,11.56,6.364,45.469,45.469,0,0,1,8.507,8.572,40.645,40.645,0,0,1,5.26,9.157,22.094,22.094,0,0,1,1.818,8.053,25.025,25.025,0,0,1-2.793,10.651,40.729,40.729,0,0,1-8.118,11.17A42.909,42.909,0,0,1,209.4-45.98,42.5,42.5,0,0,1,191.928-42.538Zm8.962-18.054a23.833,23.833,0,0,0,13.638-4.026q5.975-4.026,10.131-12.209Q220.373-85.14,214.4-89.1a23.894,23.894,0,0,0-13.508-3.962,23.518,23.518,0,0,0-9.936,1.948,14.168,14.168,0,0,0-6.429,5.65,16.539,16.539,0,0,0-2.208,8.637,16.285,16.285,0,0,0,2.208,8.507,14.616,14.616,0,0,0,6.364,5.715A22.763,22.763,0,0,0,200.89-60.592Zm60.137-48.317h26.627L292.459-79.3v44.551h-26.5V-83.322Zm57.02-2.208q10.261,0,17.4,4.286a27.88,27.88,0,0,1,10.91,12.079,41.982,41.982,0,0,1,3.767,18.444v41.563h-26.5V-72.411q0-8.313-3.767-12.729t-10.91-4.416a16.073,16.073,0,0,0-8.767,2.338,15.314,15.314,0,0,0-5.715,6.624,23.63,23.63,0,0,0-2.013,10.131l-8.183-4.286q1.559-11.82,6.364-19.937a33.761,33.761,0,0,1,11.884-12.274A30.1,30.1,0,0,1,318.047-111.117Zm57.539,0q10.261,0,17.47,4.286a27.76,27.76,0,0,1,10.975,12.079A41.983,41.983,0,0,1,407.8-76.308v41.563H381.3V-72.411q0-8.313-3.767-12.729t-10.91-4.416a16.073,16.073,0,0,0-8.767,2.338,15.314,15.314,0,0,0-5.715,6.624,23.63,23.63,0,0,0-2.013,10.131l-8.183-4.286q1.559-11.82,6.3-19.937a33.087,33.087,0,0,1,11.885-12.274A30.208,30.208,0,0,1,375.586-111.117Zm112.87,76.373L485.079-61.5l3.507-10.261-3.507-10.261,3.377-26.886h27.536l-4.676,37.017,4.676,37.147Zm6.234-37.017a55.271,55.271,0,0,1-7.209,20.522,39.36,39.36,0,0,1-13.638,13.7,36.206,36.206,0,0,1-18.768,4.871,36.968,36.968,0,0,1-19.158-4.871A33.928,33.928,0,0,1,422.994-51.3a43.326,43.326,0,0,1-4.676-20.457,43.516,43.516,0,0,1,4.676-20.652,34.479,34.479,0,0,1,12.924-13.768,36.588,36.588,0,0,1,19.158-4.936,36.206,36.206,0,0,1,18.768,4.871,40.072,40.072,0,0,1,13.7,13.638A52.846,52.846,0,0,1,494.691-71.762Zm-49.486,0a20.472,20.472,0,0,0,2.273,9.741,16.76,16.76,0,0,0,6.3,6.689,17.646,17.646,0,0,0,9.222,2.4,22.633,22.633,0,0,0,10.261-2.4A26.614,26.614,0,0,0,481.7-62.02a29.153,29.153,0,0,0,5.455-9.741,28.926,28.926,0,0,0-5.455-9.871,27.448,27.448,0,0,0-8.443-6.754A22.147,22.147,0,0,0,463-90.855a17.288,17.288,0,0,0-9.222,2.468,17.222,17.222,0,0,0-6.3,6.754A20.754,20.754,0,0,0,445.2-71.762Z" transform="translate(-6.192 141.9)" fill="#fff"/>
    </g>
  </g>
</svg>
